<?xml version="1.0" ?><svg style="enable-background:new 0 0 128 128;" version="1.1" viewBox="0 0 128 128" xml:space="preserve" xmlns="http://www.w3.org/2000/svg" xmlns:xlink="http://www.w3.org/1999/xlink"><style type="text/css">
	.st0{fill:#69A401;}
	.st1{fill:#EFE691;}
	.st2{fill:#B20000;}
	.st3{fill:#DF1801;}
	.st4{fill:#F40603;}
	.st5{fill:#FFEEEE;}
	.st6{fill:#847B3C;}
	.st7{fill:#CEB600;}
	.st8{fill:#F8CD02;}
	.st9{fill:#F7C800;}
	.st10{fill:#F6E8B9;}
	.st11{fill:#F6E9CA;}
	.st12{fill:#CF8A11;}
	.st13{fill:#286F0D;}
	.st14{fill:#63271D;}
	.st15{fill:#EB8102;}
	.st16{fill:#E37303;}
	.st17{fill:#D97102;}
	.st18{fill:#BF6302;}
	.st19{fill:#EA9735;}
	.st20{fill:#3E1A01;}
	.st21{fill:#C96A0A;}
	.st22{fill:#CE2335;}
	.st23{fill:#C0242D;}
	.st24{fill:#BA1A23;}
	.st25{fill:#F9DCC7;}
	.st26{fill:#DBE2CE;}
	.st27{fill:#7D4B12;}
	.st28{fill:#75480C;}
	.st29{fill:#66410C;}
	.st30{fill:#88550D;}
	.st31{fill:#FFFEE9;}
	.st32{fill:#9B9F1A;}
	.st33{fill:#F6E177;}
	.st34{fill:#443A00;}
	.st35{fill:#305209;}
	.st36{fill:#7F7C04;}
	.st37{fill:#BAB424;}
	.st38{fill:#F7CF43;}
	.st39{fill:#DE940E;}
	.st40{fill:#5F570A;}
	.st41{fill:#175424;}
	.st42{fill:#215B25;}
	.st43{fill:#1B5020;}
	.st44{fill:#C0F9C0;}
	.st45{fill:#F3DA78;}
	.st46{fill:#BC441C;}
	.st47{fill:#148E2E;}
	.st48{fill:#283767;}
	.st49{fill:#425285;}
	.st50{fill:#CFDFFF;}
	.st51{fill:#1F2C55;}
	.st52{fill:#776220;}
	.st53{fill:#90236B;}
	.st54{fill:#5D1A47;}
	.st55{fill:#99499A;}
	.st56{fill:#FCCAFA;}
	.st57{fill:#917C31;}
	.st58{fill:#F4C435;}
	.st59{fill:#F1BC02;}
	.st60{fill:#F0B102;}
	.st61{fill:#F1F7BA;}
	.st62{fill:#E3DCB9;}
	.st63{fill:#BD6800;}
	.st64{fill:#E19704;}
	.st65{fill:#B2CA2B;}
	.st66{fill:#AFC20F;}
	.st67{fill:#B9CB00;}
	.st68{fill:#E5F392;}
	.st69{fill:#F78202;}
	.st70{fill:#F79613;}
	.st71{fill:#331F07;}
	.st72{fill:#402B16;}
	.st73{fill:#669404;}
	.st74{fill:#F58E13;}
	.st75{fill:#D87117;}
	.st76{fill:#216604;}
	.st77{fill:#286D08;}
	.st78{fill:#C8C625;}
	.st79{fill:#2C441F;}
	.st80{fill:#F1E6BF;}
	.st81{fill:#F2BE2E;}
	.st82{fill:#BF8F33;}
	.st83{fill:#568804;}
	.st84{fill:#669614;}
	.st85{fill:#688E0C;}
	.st86{fill:#4C7005;}
	.st87{fill:#A0CA49;}
	.st88{fill:#99BD70;}
	.st89{fill:#78AA25;}
	.st90{fill:#4B7C23;}
	.st91{fill:#EADBC8;}
	.st92{fill:#F0D5B0;}
	.st93{fill:#DF2B2B;}
	.st94{fill:#D1262C;}
	.st95{fill:#B7252C;}
	.st96{fill:#46670C;}
	.st97{fill:#F49D5B;}
	.st98{fill:#F57A55;}
	.st99{fill:#F1C3A7;}
	.st100{fill:#CC0917;}
	.st101{fill:#DC1035;}
	.st102{fill:#9BAC0F;}
	.st103{fill:#667A1D;}
	.st104{fill:#7A9D18;}
	.st105{fill:#F6F7E6;}
	.st106{fill:#F0194D;}
	.st107{fill:#362420;}
	.st108{fill:#530618;}
	.st109{fill:#44041A;}
	.st110{fill:#490419;}
	.st111{fill:#F8A459;}
	.st112{fill:#871B22;}
	.st113{fill:#600613;}
	.st114{fill:#F8C790;}
	.st115{fill:#447832;}
	.st116{fill:#7C473D;}
	.st117{fill:#441432;}
	.st118{fill:#51163F;}
	.st119{fill:#5B1A41;}
	.st120{fill:#FCEBF9;}
	.st121{fill:#ECE5CE;}
	.st122{fill:#BC3E2C;}
	.st123{fill:#A60F26;}
	.st124{fill:#C61632;}
	.st125{fill:#BD1331;}
	.st126{fill:#F8B772;}
	.st127{fill:#F7DDAC;}
	.st128{fill:#850E11;}
	.st129{fill:#191200;}
	.st130{fill:#553D2D;}
	.st131{fill:#F9E2D2;}
	.st132{fill:#CA8937;}
	.st133{fill:#462D16;}
	.st134{fill:#6D8916;}
	.st135{fill:#96B54E;}
	.st136{fill:#E3E2DE;}
	.st137{fill:#261811;}
	.st138{fill:#525C11;}
	.st139{fill:#14581E;}
	.st140{fill:#3D7712;}
	.st141{fill:#9BC148;}
	.st142{fill:#E22434;}
	.st143{fill:#C6DD9E;}
	.st144{fill:#F89A07;}
	.st145{fill:#F7A410;}
	.st146{fill:#F8AB19;}
	.st147{fill:#F7B81C;}
	.st148{fill:#E5870A;}
	.st149{fill:#97A304;}
	.st150{fill:#A88C5C;}
	.st151{fill:#ADC21E;}
	.st152{fill:#A3BA0B;}
	.st153{fill:#8D9E08;}
	.st154{fill:#E0DAB9;}
	.st155{fill:#684219;}
	.st156{fill:#777F05;}
	.st157{fill:#F2E9C4;}
	.st158{fill:#CBB465;}
	.st159{fill:#FFF5CA;}
	.st160{fill:#E52828;}
	.st161{fill:#F87302;}
	.st162{fill:#FF7B22;}
	.st163{fill:#FC7F10;}
	.st164{fill:#F8A200;}
	.st165{fill:#F8DC91;}
	.st166{fill:#FFFFFF;}
	.st167{fill:#F5D7D5;}
	.st168{fill:#EDA07A;}
	.st169{fill:#FCBEBE;}
	.st170{fill:#EAD991;}
	.st171{fill:#582612;}
</style><g id="_x33_0_Mulberry"/><g id="_x32_9_Star_Fruit"/><g id="_x32_8_Apricot"/><g id="_x32_7_Litchi"/><g id="_x32_6_Kiwi"/><g id="_x32_5_Jackfruit"/><g id="_x32_4_Avacado"/><g id="_x32_3_Blueberry"/><g id="_x32_2_Purple_Grapes"/><g id="_x32_1_Melon"/><g id="_x32_0_Green_Grapes"/><g id="_x31_9_Papaya"/><g id="_x31_8_Pineapple"/><g id="_x31_7_Banana"/><g id="_x31_6_Tender_Coconut"/><g id="_x31_5_Strawberry"/><g id="_x31_4_Dragon_Fruit"/><g id="_x31_3_Plum"/><g id="_x31_2_Fig"><g id="XMLID_763_"><g id="XMLID_791_"><g id="XMLID_792_"><path class="st115" d="M38.087,11.14c-3.332,5.179-3.742,11.231-1.69,16.498      c5.944-0.781,11.475-3.961,14.808-9.14C54.536,13.319,54.947,7.267,52.894,2C46.95,2.781,41.419,5.961,38.087,11.14z" id="XMLID_799_"/><path class="st116" d="M36.844,36.05c-1.104,0-2-0.896-2-2v-2.57c0-4.813-2.395-9.255-6.406-11.883l2.192-3.346      c5.143,3.37,8.214,9.063,8.214,15.229v2.57C38.844,35.154,37.948,36.05,36.844,36.05z"/></g><path class="st117" d="M42.241,34.34c3.761,8.362,9.784,15.427,17.157,20.864     c1.468,1.082,2.819,2.291,4.061,3.586c14.758,15.383,11.681,40.217-5.702,52.616c-8.538,6.09-17.24,10.101-19.335,11.031     c-0.309,0.137-0.641,0.207-0.98,0.207s-0.67-0.07-0.98-0.207c-2.095-0.93-10.797-4.941-19.335-11.031     c-17.383-12.4-20.46-37.233-5.702-52.616c1.404-1.463,2.948-2.817,4.642-4.003C23.408,49.65,29.056,42.44,32.223,34.05l0,0     L42.241,34.34L42.241,34.34z" id="XMLID_803_"/><path class="st118" d="M29.528,111.406c-17.383-12.4-20.46-37.233-5.702-52.616     c1.404-1.463,2.948-2.817,4.642-4.003c6.521-4.563,11.695-10.767,14.992-17.976c-0.423-0.814-0.84-1.631-1.217-2.471     l-10.018-0.29v0c-3.167,8.391-8.815,15.601-16.156,20.737c-1.694,1.185-3.238,2.54-4.642,4.003     c-14.758,15.383-11.681,40.217,5.702,52.616c8.538,6.09,17.239,10.101,19.335,11.031c0.309,0.137,0.641,0.207,0.98,0.207     c0.339,0,0.67-0.07,0.98-0.207c0.833-0.37,2.723-1.235,5.22-2.516C39.861,117.98,34.67,115.074,29.528,111.406z" id="XMLID_392_"/><path class="st119" d="M23.328,111.406c-17.383-12.4-20.46-37.233-5.702-52.616     c1.404-1.463,2.948-2.817,4.642-4.003c7.288-5.1,12.901-12.246,16.081-20.56l-6.125-0.178v0     c-3.167,8.391-8.815,15.601-16.156,20.737c-1.694,1.185-3.238,2.54-4.642,4.003c-14.758,15.383-11.681,40.217,5.702,52.616     c8.538,6.09,17.239,10.101,19.335,11.031c0.309,0.137,0.641,0.207,0.98,0.207c0.339,0,0.67-0.07,0.98-0.207     c0.436-0.194,1.172-0.528,2.12-0.98C36.938,119.739,30.088,116.228,23.328,111.406z" id="XMLID_137_"/><path class="st120" d="M18.69,103.09c-0.53,0-1.05-0.21-1.42-0.58c-0.09-0.09-0.17-0.2-0.25-0.3c-0.07-0.11-0.13-0.23-0.18-0.35     s-0.09-0.25-0.12-0.37c-0.02-0.13-0.03-0.26-0.03-0.4c0-0.52,0.21-1.04,0.58-1.41c0.46-0.46,1.16-0.68,1.81-0.54     c0.12,0.02,0.25,0.06,0.37,0.11c0.12,0.05,0.24,0.11,0.35,0.18c0.1,0.08,0.21,0.16,0.3,0.25c0.37,0.37,0.59,0.89,0.59,1.41     c0,0.14-0.02,0.27-0.04,0.4c-0.03,0.12-0.07,0.25-0.12,0.37s-0.11,0.24-0.18,0.35c-0.07,0.1-0.16,0.21-0.25,0.3     c-0.09,0.09-0.2,0.18-0.3,0.25c-0.11,0.07-0.23,0.13-0.35,0.18c-0.12,0.05-0.25,0.09-0.37,0.12     C18.95,103.08,18.82,103.09,18.69,103.09z"/><path class="st120" d="M14.051,96.838c-0.807,0-1.567-0.492-1.871-1.291c-3.667-9.668-3.18-20.377,1.337-29.382     c0.495-0.988,1.698-1.387,2.684-0.891c0.988,0.495,1.386,1.697,0.891,2.684c-4.016,8.007-4.443,17.545-1.172,26.17     c0.392,1.033-0.128,2.188-1.161,2.58C14.526,96.796,14.287,96.838,14.051,96.838z"/></g><g id="XMLID_767_"><path class="st121" d="M125.731,97.377c-7.756,3.513-14.309,9.139-19.352,16.026     c-1.004,1.371-2.125,2.633-3.326,3.793c-14.268,13.785-36.156,9.592-47.656-6.645c-5.649-7.975-9.792-15.037-10.655-16.994     c-0.127-0.289-0.192-0.598-0.192-0.915c0-0.317,0.145-0.603,0.192-0.915c0.336-2.216,3.86-9.832,9.509-17.807     c11.501-16.237,34.535-19.111,48.803-5.326c1.357,1.311,2.613,2.753,3.713,4.336c4.764,6.857,11.452,12.132,19.234,15.09h0     L125.731,97.377L125.731,97.377z" id="XMLID_790_"/><path class="st119" d="M125.907,91.254c-7.756,3.513-14.485,9.062-19.528,15.949     c-1.004,1.371-2.125,2.633-3.326,3.793c-14.268,13.785-37.302,10.911-48.803-5.326c-4.384-6.19-7.435-12.114-9.061-15.531     c-0.469,0.986-0.977,1.403-1.171,1.841c-0.127,0.289-0.192,0.598-0.192,0.915s0.065,0.626,0.192,0.915     c0.863,1.957,4.583,10.085,10.232,18.06c11.501,16.237,34.534,19.111,48.803,5.326c1.2-1.16,2.322-2.422,3.326-3.793     c5.043-6.887,11.596-12.512,19.352-16.026L125.907,91.254z" id="XMLID_685_"/><g id="XMLID_768_"><g><g id="XMLID_45_"><path class="st122" d="M80.343,71.977c-1.104,0-2-0.896-2-2v-5.824c0-1.104,0.896-2,2-2s2,0.896,2,2v5.824        C82.343,71.081,81.448,71.977,80.343,71.977z"/><path class="st122" d="M70.538,74.963c-0.692,0-1.364-0.359-1.734-1.001l-2.908-5.043c-0.551-0.957-0.223-2.18,0.734-2.731        c0.958-0.552,2.18-0.224,2.731,0.733l2.908,5.043c0.551,0.957,0.223,2.18-0.734,2.732        C71.22,74.876,70.876,74.963,70.538,74.963z"/><path class="st122" d="M63.532,82.459c-0.34,0-0.684-0.087-0.999-0.269l-5.037-2.912c-0.956-0.553-1.283-1.776-0.73-2.732        c0.552-0.957,1.775-1.284,2.732-0.73l5.037,2.912c0.956,0.553,1.283,1.776,0.73,2.732        C64.895,82.101,64.223,82.459,63.532,82.459z"/><path class="st122" d="M61.212,92.457h-5.816c-1.104,0-2-0.896-2-2s0.896-2,2-2h5.816c1.104,0,2,0.896,2,2        S62.317,92.457,61.212,92.457z"/><path class="st122" d="M59.159,105.189c-0.691,0-1.363-0.358-1.733-1c-0.553-0.957-0.226-2.18,0.73-2.732l5.037-2.912        c0.959-0.553,2.181-0.226,2.732,0.73c0.553,0.957,0.226,2.18-0.73,2.732l-5.037,2.912        C59.843,105.102,59.499,105.189,59.159,105.189z"/><path class="st122" d="M68.77,114.333c-0.339,0-0.682-0.086-0.997-0.268c-0.957-0.552-1.285-1.774-0.733-2.731l2.908-5.043        c0.551-0.957,1.773-1.286,2.731-0.733c0.957,0.552,1.285,1.774,0.733,2.731l-2.908,5.043        C70.134,113.973,69.462,114.333,68.77,114.333z"/><path class="st122" d="M81.665,117.437c-1.104,0-2-0.896-2-2v-5.824c0-1.104,0.896-2,2-2s2,0.896,2,2v5.824        C83.665,116.541,82.769,117.437,81.665,117.437z"/><path class="st122" d="M94.381,113.671c-0.692,0-1.364-0.359-1.734-1.001l-2.908-5.043c-0.551-0.957-0.223-2.18,0.734-2.731        c0.958-0.553,2.18-0.223,2.731,0.733l2.908,5.043c0.551,0.957,0.223,2.18-0.734,2.732        C95.063,113.584,94.72,113.671,94.381,113.671z"/><path class="st122" d="M103.509,104.043c-0.34,0-0.684-0.087-0.999-0.269l-5.037-2.912c-0.956-0.553-1.283-1.776-0.73-2.732        c0.552-0.957,1.774-1.284,2.732-0.73l5.037,2.912c0.956,0.553,1.283,1.776,0.73,2.732        C104.872,103.685,104.2,104.043,103.509,104.043z"/><path class="st122" d="M106.611,91.133h-5.816c-1.104,0-2-0.896-2-2s0.896-2,2-2h5.816c1.104,0,2,0.896,2,2        S107.715,91.133,106.611,91.133z"/><path class="st122" d="M97.815,81.313c-0.691,0-1.363-0.358-1.733-1c-0.553-0.956-0.226-2.18,0.73-2.732l5.037-2.912        c0.957-0.552,2.18-0.226,2.732,0.73c0.553,0.956,0.226,2.18-0.73,2.732l-5.037,2.912        C98.499,81.227,98.154,81.313,97.815,81.313z"/><path class="st122" d="M90.325,74.301c-0.339,0-0.682-0.086-0.997-0.268c-0.957-0.552-1.285-1.774-0.733-2.731l2.908-5.043        c0.551-0.958,1.772-1.287,2.731-0.733c0.957,0.552,1.285,1.774,0.733,2.731L92.06,73.3        C91.689,73.942,91.017,74.301,90.325,74.301z"/></g><g id="XMLID_38_"><path class="st122" d="M80.675,82.253c-1.104,0-2-0.896-2-2v-2.804c0-1.104,0.896-2,2-2s2,0.896,2,2v2.804        C82.675,81.357,81.78,82.253,80.675,82.253z"/><path class="st122" d="M72.315,87.3c-0.331,0-0.666-0.083-0.975-0.255l-2.504-1.402c-0.964-0.54-1.308-1.758-0.768-2.722        c0.54-0.963,1.758-1.308,2.722-0.768l2.504,1.402c0.964,0.54,1.308,1.758,0.768,2.722C73.695,86.932,73.016,87.3,72.315,87.3z        "/><path class="st122" d="M70.143,98.244c-0.701,0-1.38-0.369-1.747-1.023c-0.54-0.964-0.196-2.183,0.768-2.722l2.504-1.402        c0.964-0.54,2.183-0.196,2.722,0.768c0.54,0.964,0.196,2.183-0.768,2.722l-2.504,1.402        C70.809,98.162,70.474,98.244,70.143,98.244z"/><path class="st122" d="M81.332,104.141c-1.104,0-2-0.896-2-2v-2.804c0-1.104,0.896-2,2-2s2,0.896,2,2v2.804        C83.332,103.246,82.437,104.141,81.332,104.141z"/><path class="st122" d="M92.193,97.692c-0.331,0-0.666-0.083-0.975-0.255l-2.504-1.402c-0.964-0.54-1.308-1.758-0.768-2.722        c0.539-0.963,1.759-1.307,2.722-0.768l2.504,1.402c0.964,0.54,1.308,1.758,0.768,2.722        C93.574,97.324,92.894,97.692,92.193,97.692z"/><path class="st122" d="M89.364,86.749c-0.701,0-1.38-0.369-1.747-1.023c-0.54-0.964-0.196-2.183,0.768-2.722l2.504-1.402        c0.964-0.54,2.183-0.195,2.722,0.768c0.54,0.964,0.196,2.183-0.768,2.722l-2.504,1.402        C90.03,86.666,89.694,86.749,89.364,86.749z"/><path class="st122" d="M80.675,92.762c-1.104,0-2-0.896-2-2v-3.257c0-1.104,0.896-2,2-2s2,0.896,2,2v3.257        C82.675,91.866,81.78,92.762,80.675,92.762z"/></g></g></g></g></g></g><g id="_x31_1_Peach"/><g id="_x31_0_Cherry"/><g id="_x30_9_Sapota"/><g id="_x30_8_Custard_Apple"/><g id="_x30_7_Watermelon"/><g id="_x30_6_Mango"/><g id="_x30_5_Pear"/><g id="_x30_4_Guava"/><g id="_x30_3_Pomegranate"/><g id="_x30_2_Orange"/><g id="_x30_1_Apple"/></svg>